# xmcd
#
# Track frame offsets:
#	150
#	4831
#	9122
#	13427
#	17775
#	22175
#	26576
#	34912
#	40711
#	45059
#	51115
#	59067
#
# Disc length: 892 seconds
# Revision: 0
# Processed by: cddbd v1.5.2PL0 Copyright (c) Steve Scherf et al.
# Submitted via: dBpowerAMP V12.0
#
DISCID=8e037a0c
DTITLE=Uffe Steen - Blues for begyndere og viderekomne
DYEAR=2001
DGENRE=Blues
TTITLE0=Blues 1
TTITLE1=Blues 2
TTITLE2=Blues 3
TTITLE3=Blues 4
TTITLE4=Blues 5
TTITLE5=Blues 6
TTITLE6=Blues 7
TTITLE7=Blues 8
TTITLE8=Blues 9
TTITLE9=Blues 10
TTITLE10=Blues 11
TTITLE11=Blues 12
EXTD=
EXTT0=
EXTT1=
EXTT2=
EXTT3=
EXTT4=
EXTT5=
EXTT6=
EXTT7=
EXTT8=
EXTT9=
EXTT10=
EXTT11=
PLAYORDER=
